<mxfile host="app.diagrams.net" modified="2023-06-05T01:46:58.065Z" agent="Mozilla/5.0 (X11; Linux x86_64; rv:108.0) Gecko/20100101 Firefox/108.0" etag="i08DlTrZCjoZRgr1LYK3" version="21.3.7" type="device">
  <diagram name="Page-1" id="58cdce13-f638-feb5-8d6f-7d28b1aa9fa0">
    <mxGraphModel dx="1593" dy="807" grid="1" gridSize="10" guides="1" tooltips="1" connect="1" arrows="1" fold="1" page="1" pageScale="1" pageWidth="1100" pageHeight="850" background="none" math="0" shadow="0">
      <root>
        <mxCell id="0" />
        <mxCell id="1" parent="0" />
        <mxCell id="382b91b5511bd0f7-1" value="" style="ellipse;html=1;shape=startState;fillColor=#000000;strokeColor=#ff0000;rounded=1;shadow=0;comic=0;labelBackgroundColor=none;fontFamily=Verdana;fontSize=12;fontColor=#000000;align=center;direction=south;whiteSpace=wrap;" parent="1" vertex="1">
          <mxGeometry x="65" y="255" width="30" height="30" as="geometry" />
        </mxCell>
        <mxCell id="jmYXuYezzpbRNKOSCwyp-2" style="edgeStyle=orthogonalEdgeStyle;rounded=0;orthogonalLoop=1;jettySize=auto;html=1;entryX=0;entryY=0.5;entryDx=0;entryDy=0;" edge="1" parent="1" source="382b91b5511bd0f7-6" target="382b91b5511bd0f7-7">
          <mxGeometry relative="1" as="geometry" />
        </mxCell>
        <mxCell id="jmYXuYezzpbRNKOSCwyp-3" value="Вызван метод generate_labyrinth" style="edgeLabel;html=1;align=center;verticalAlign=middle;resizable=0;points=[];" vertex="1" connectable="0" parent="jmYXuYezzpbRNKOSCwyp-2">
          <mxGeometry x="-0.1197" relative="1" as="geometry">
            <mxPoint x="7" y="-15" as="offset" />
          </mxGeometry>
        </mxCell>
        <mxCell id="382b91b5511bd0f7-6" value="Создан массив, состоящий из объектов класса Cell" style="rounded=1;whiteSpace=wrap;html=1;arcSize=24;fillColor=#ffffc0;strokeColor=#ff0000;shadow=0;comic=0;labelBackgroundColor=none;fontFamily=Verdana;fontSize=12;fontColor=#000000;align=center;" parent="1" vertex="1">
          <mxGeometry x="20" y="125" width="120" height="60" as="geometry" />
        </mxCell>
        <mxCell id="jmYXuYezzpbRNKOSCwyp-28" style="edgeStyle=orthogonalEdgeStyle;rounded=0;orthogonalLoop=1;jettySize=auto;html=1;entryX=0;entryY=0.5;entryDx=0;entryDy=0;" edge="1" parent="1" source="382b91b5511bd0f7-7" target="jmYXuYezzpbRNKOSCwyp-27">
          <mxGeometry relative="1" as="geometry" />
        </mxCell>
        <mxCell id="382b91b5511bd0f7-7" value="Выбранная клетка отмечена как посещенная" style="rounded=1;whiteSpace=wrap;html=1;arcSize=24;fillColor=#ffffc0;strokeColor=#ff0000;shadow=0;comic=0;labelBackgroundColor=none;fontFamily=Verdana;fontSize=12;fontColor=#000000;align=center;" parent="1" vertex="1">
          <mxGeometry x="330" y="125" width="120" height="60" as="geometry" />
        </mxCell>
        <mxCell id="2a3bc250acf0617d-8" value="creating labyrinth" style="shape=umlFrame;whiteSpace=wrap;html=1;rounded=1;shadow=0;comic=0;labelBackgroundColor=none;strokeWidth=1;fontFamily=Verdana;fontSize=12;align=center;" parent="1" vertex="1">
          <mxGeometry y="40" width="1100" height="755" as="geometry" />
        </mxCell>
        <mxCell id="2a3bc250acf0617d-9" value="Cоздание экземпляра Board" style="edgeStyle=orthogonalEdgeStyle;html=1;labelBackgroundColor=none;endArrow=open;endSize=8;strokeColor=#ff0000;fontFamily=Verdana;fontSize=12;align=left;" parent="1" source="382b91b5511bd0f7-1" target="382b91b5511bd0f7-6" edge="1">
          <mxGeometry y="50" relative="1" as="geometry">
            <mxPoint as="offset" />
          </mxGeometry>
        </mxCell>
        <mxCell id="jmYXuYezzpbRNKOSCwyp-10" style="edgeStyle=orthogonalEdgeStyle;rounded=0;orthogonalLoop=1;jettySize=auto;html=1;entryX=0;entryY=0.5;entryDx=0;entryDy=0;" edge="1" parent="1" source="jmYXuYezzpbRNKOSCwyp-5" target="jmYXuYezzpbRNKOSCwyp-7">
          <mxGeometry relative="1" as="geometry" />
        </mxCell>
        <mxCell id="jmYXuYezzpbRNKOSCwyp-5" value="Увеличен счетчик посещенных клеток cnt_visited" style="rounded=1;whiteSpace=wrap;html=1;arcSize=24;fillColor=#ffffc0;strokeColor=#ff0000;shadow=0;comic=0;labelBackgroundColor=none;fontFamily=Verdana;fontSize=12;fontColor=#000000;align=center;" vertex="1" parent="1">
          <mxGeometry x="690" y="120" width="120" height="60" as="geometry" />
        </mxCell>
        <mxCell id="jmYXuYezzpbRNKOSCwyp-15" value="счетчик не равен количеству всех клеток" style="edgeStyle=orthogonalEdgeStyle;rounded=0;orthogonalLoop=1;jettySize=auto;html=1;" edge="1" parent="1" source="jmYXuYezzpbRNKOSCwyp-7">
          <mxGeometry x="-0.5652" y="25" relative="1" as="geometry">
            <mxPoint x="915" y="240" as="targetPoint" />
            <Array as="points">
              <mxPoint x="865" y="240" />
            </Array>
            <mxPoint as="offset" />
          </mxGeometry>
        </mxCell>
        <mxCell id="jmYXuYezzpbRNKOSCwyp-7" value="" style="rhombus;whiteSpace=wrap;html=1;" vertex="1" parent="1">
          <mxGeometry x="840" y="125" width="50" height="50" as="geometry" />
        </mxCell>
        <mxCell id="jmYXuYezzpbRNKOSCwyp-18" value="&lt;div&gt;метод вернул следующую &lt;br&gt;&lt;/div&gt;&lt;div&gt;клетку&lt;/div&gt;" style="edgeStyle=orthogonalEdgeStyle;rounded=0;orthogonalLoop=1;jettySize=auto;html=1;" edge="1" parent="1" source="jmYXuYezzpbRNKOSCwyp-16" target="jmYXuYezzpbRNKOSCwyp-17">
          <mxGeometry x="1" y="132" relative="1" as="geometry">
            <mxPoint x="-112" y="130" as="offset" />
          </mxGeometry>
        </mxCell>
        <mxCell id="jmYXuYezzpbRNKOSCwyp-16" value="Вызван метод check_neighbors" style="rounded=1;whiteSpace=wrap;html=1;arcSize=24;fillColor=#ffffc0;strokeColor=#ff0000;shadow=0;comic=0;labelBackgroundColor=none;fontFamily=Verdana;fontSize=12;fontColor=#000000;align=center;" vertex="1" parent="1">
          <mxGeometry x="805" y="240" width="120" height="60" as="geometry" />
        </mxCell>
        <mxCell id="jmYXuYezzpbRNKOSCwyp-19" style="edgeStyle=orthogonalEdgeStyle;rounded=0;orthogonalLoop=1;jettySize=auto;html=1;entryX=1.012;entryY=0.567;entryDx=0;entryDy=0;entryPerimeter=0;" edge="1" parent="1" source="jmYXuYezzpbRNKOSCwyp-17" target="jmYXuYezzpbRNKOSCwyp-22">
          <mxGeometry relative="1" as="geometry">
            <mxPoint x="810" y="385" as="targetPoint" />
            <Array as="points">
              <mxPoint x="865" y="585" />
            </Array>
          </mxGeometry>
        </mxCell>
        <mxCell id="jmYXuYezzpbRNKOSCwyp-26" value="&lt;div&gt;метод вернул False&lt;br&gt;&lt;/div&gt;" style="edgeStyle=orthogonalEdgeStyle;rounded=0;orthogonalLoop=1;jettySize=auto;html=1;entryX=1;entryY=0.5;entryDx=0;entryDy=0;" edge="1" parent="1" source="jmYXuYezzpbRNKOSCwyp-17" target="jmYXuYezzpbRNKOSCwyp-25">
          <mxGeometry x="-0.0909" y="-20" relative="1" as="geometry">
            <mxPoint as="offset" />
          </mxGeometry>
        </mxCell>
        <mxCell id="jmYXuYezzpbRNKOSCwyp-17" value="" style="rhombus;whiteSpace=wrap;html=1;" vertex="1" parent="1">
          <mxGeometry x="840" y="365" width="50" height="50" as="geometry" />
        </mxCell>
        <mxCell id="jmYXuYezzpbRNKOSCwyp-32" style="edgeStyle=orthogonalEdgeStyle;rounded=0;orthogonalLoop=1;jettySize=auto;html=1;entryX=0.5;entryY=1;entryDx=0;entryDy=0;" edge="1" parent="1" source="jmYXuYezzpbRNKOSCwyp-22" target="jmYXuYezzpbRNKOSCwyp-27">
          <mxGeometry relative="1" as="geometry" />
        </mxCell>
        <mxCell id="jmYXuYezzpbRNKOSCwyp-22" value="&lt;div&gt;Текущая клетка помещена в стэк,&lt;/div&gt;&lt;div&gt;следующая клетка теперь текущая&lt;br&gt;&lt;/div&gt;" style="rounded=1;whiteSpace=wrap;html=1;arcSize=24;fillColor=#ffffc0;strokeColor=#ff0000;shadow=0;comic=0;labelBackgroundColor=none;fontFamily=Verdana;fontSize=12;fontColor=#000000;align=center;" vertex="1" parent="1">
          <mxGeometry x="490" y="540" width="170" height="80" as="geometry" />
        </mxCell>
        <mxCell id="jmYXuYezzpbRNKOSCwyp-31" style="edgeStyle=orthogonalEdgeStyle;rounded=0;orthogonalLoop=1;jettySize=auto;html=1;entryX=0.5;entryY=1;entryDx=0;entryDy=0;" edge="1" parent="1" source="jmYXuYezzpbRNKOSCwyp-25" target="jmYXuYezzpbRNKOSCwyp-27">
          <mxGeometry relative="1" as="geometry" />
        </mxCell>
        <mxCell id="jmYXuYezzpbRNKOSCwyp-25" value="текущая клетка - клетка, забранная из стэка" style="rounded=1;whiteSpace=wrap;html=1;arcSize=24;fillColor=#ffffc0;strokeColor=#ff0000;shadow=0;comic=0;labelBackgroundColor=none;fontFamily=Verdana;fontSize=12;fontColor=#000000;align=center;" vertex="1" parent="1">
          <mxGeometry x="610" y="360" width="120" height="60" as="geometry" />
        </mxCell>
        <mxCell id="jmYXuYezzpbRNKOSCwyp-29" style="edgeStyle=orthogonalEdgeStyle;rounded=0;orthogonalLoop=1;jettySize=auto;html=1;entryX=-0.008;entryY=0.59;entryDx=0;entryDy=0;entryPerimeter=0;" edge="1" parent="1" source="jmYXuYezzpbRNKOSCwyp-27" target="jmYXuYezzpbRNKOSCwyp-5">
          <mxGeometry relative="1" as="geometry" />
        </mxCell>
        <mxCell id="jmYXuYezzpbRNKOSCwyp-27" value="Выбрана следующая клетка, она стала помеченной" style="rounded=1;whiteSpace=wrap;html=1;arcSize=24;fillColor=#ffffc0;strokeColor=#ff0000;shadow=0;comic=0;labelBackgroundColor=none;fontFamily=Verdana;fontSize=12;fontColor=#000000;align=center;" vertex="1" parent="1">
          <mxGeometry x="490" y="122.5" width="170" height="65" as="geometry" />
        </mxCell>
        <mxCell id="jmYXuYezzpbRNKOSCwyp-33" value="счетчик равен количеству всех клеток" style="edgeStyle=orthogonalEdgeStyle;rounded=0;orthogonalLoop=1;jettySize=auto;html=1;" edge="1" parent="1" source="jmYXuYezzpbRNKOSCwyp-7" target="jmYXuYezzpbRNKOSCwyp-14">
          <mxGeometry y="20" relative="1" as="geometry">
            <mxPoint x="1140" y="150" as="targetPoint" />
            <mxPoint x="890" y="150" as="sourcePoint" />
            <mxPoint as="offset" />
          </mxGeometry>
        </mxCell>
        <mxCell id="jmYXuYezzpbRNKOSCwyp-14" value="" style="ellipse;shape=endState;fillColor=#a20025;strokeColor=#6F0000;fontColor=#ffffff;" vertex="1" parent="1">
          <mxGeometry x="1060" y="135" width="30" height="30" as="geometry" />
        </mxCell>
      </root>
    </mxGraphModel>
  </diagram>
</mxfile>
